<?xml version="1.0" encoding="UTF-8" standalone="no"?>
<svg xmlns="http://www.w3.org/2000/svg" viewBox="0 0 48 48" width="48px" height="48px">
  <path fill="#0277BD" d="M24 4C12.95 4 4 12.95 4 24s8.95 20 20 20 20-8.95 20-20S35.05 4 24 4z"/>
  <path fill="#FFFFFF" d="M33 21h-8v-8c0-.55-.45-1-1-1s-1 .45-1 1v8h-8c-.55 0-1 .45-1 1s.45 1 1 1h8v8c0 .55.45 1 1 1s1-.45 1-1v-8h8c.55 0 1-.45 1-1s-.45-1-1-1z"/>
  <path fill="#FFFFFF" d="M24 7c-9.37 0-17 7.63-17 17s7.63 17 17 17 17-7.63 17-17S33.37 7 24 7zm0 30c-7.18 0-13-5.82-13-13s5.82-13 13-13 13 5.82 13 13-5.82 13-13 13z"/>
</svg>
